<?xml version="1.0" encoding="UTF-8"?>
<svg id="_Слой_1" data-name="Слой 1" xmlns="http://www.w3.org/2000/svg" viewBox="0 0 24 24">
  <defs>
    <style>
      .cls-1 {
        fill: #fff;
      }

      .cls-2 {
        fill: none;
      }

      .cls-3 {
        fill: #101417;
      }
    </style>
  </defs>
  <rect class="cls-3" x="0" y="0" width="24" height="24" rx="6" ry="6"/>
  <g>
    <rect class="cls-2" width="24" height="24"/>
    <path class="cls-1" d="M5.68,8.39h2.51c1.61,0,2.8.49,2.8,1.93,0,.74-.4,1.46-1.09,1.7v.05c.87.2,1.51.8,1.51,1.86,0,1.57-1.29,2.3-3.01,2.3h-2.71v-7.84ZM8.06,11.63c1.09,0,1.56-.43,1.56-1.11,0-.76-.51-1.05-1.53-1.05h-1.02v2.15h.99ZM8.24,15.15c1.15,0,1.79-.41,1.79-1.3,0-.83-.62-1.18-1.79-1.18h-1.18v2.48h1.18Z"/>
    <path class="cls-1" d="M12.56,8.53c0-.47.36-.78.85-.78s.85.32.85.78-.37.78-.85.78-.85-.33-.85-.78ZM12.72,10.35h1.38v5.89h-1.38v-5.89Z"/>
    <path class="cls-1" d="M16.07,14.25v-2.81h-.84v-1.04l.91-.06.16-1.61h1.15v1.61h1.5v1.1h-1.5v2.8c0,.69.27,1.03.83,1.03.2,0,.44-.07.61-.13l.23,1.02c-.32.11-.73.22-1.2.22-1.36,0-1.86-.86-1.86-2.13Z"/>
  </g>
</svg>